<svg width="248" height="62" viewBox="0 0 248 62" fill="none" xmlns="http://www.w3.org/2000/svg">
<g id="Group">
<path id="Vector" d="M62.229 61.9999C61.6012 61.9999 61.059 61.7703 60.6024 61.3111C60.1459 60.8518 59.9176 60.3064 59.9176 59.6749V4.04717C59.9176 3.41569 60.1459 2.87032 60.6024 2.41106C61.059 1.9518 61.6012 1.72217 62.229 1.72217H79.6925C80.3203 1.72217 80.8625 1.9518 81.3191 2.41106C81.7756 2.87032 82.0039 3.41569 82.0039 4.04717V59.6749C82.0039 60.3064 81.7756 60.8518 81.3191 61.3111C80.8625 61.7703 80.3203 61.9999 79.6925 61.9999H62.229Z" fill="#232321"/>
<path id="Vector_2" d="M2.31136 61.1391C1.68358 61.1391 1.14141 60.9095 0.684846 60.4502C0.228282 59.991 0 59.4456 0 58.8141V3.18633C0 2.55485 0.228282 2.00948 0.684846 1.55022C1.14141 1.09096 1.68358 0.861328 2.31136 0.861328H18.6621C19.2898 0.861328 19.832 1.09096 20.2886 1.55022C20.7451 2.00948 20.9734 2.55485 20.9734 3.18633V20.2363L30.6469 2.75577C30.9322 2.29651 31.3412 1.86596 31.8929 1.46411C32.4351 1.06225 33.158 0.861328 34.0711 0.861328H52.99C53.5036 0.861328 53.9412 1.05269 54.3216 1.41627C54.6926 1.78941 54.8733 2.22954 54.8733 2.75577C54.8733 3.10022 54.7877 3.41596 54.6165 3.70299L39.2075 29.7085L56.0718 58.2974C56.243 58.5271 56.3286 58.8428 56.3286 59.2447C56.3286 59.7613 56.1384 60.211 55.7769 60.5842C55.406 60.9573 54.9684 61.1391 54.4453 61.1391H34.9272C33.7858 61.1391 32.9392 60.8712 32.4065 60.3163C31.8644 59.7709 31.5315 59.3882 31.4173 59.1586L20.9734 40.3863V58.8141C20.9734 59.4456 20.7451 59.991 20.2886 60.4502C19.832 60.9095 19.2898 61.1391 18.6621 61.1391H2.31136Z" fill="#232321"/>
<path id="Vector_3" d="M113.97 62C108.491 62 103.64 61.1963 99.4169 59.5889C95.1936 57.9815 91.836 55.4556 89.3534 52.0111C86.8709 48.5667 85.5107 44.1176 85.2919 38.6639C85.2348 36.3102 85.2063 33.7843 85.2063 31.0861C85.2063 28.388 85.2348 25.8046 85.2919 23.3361C85.5202 17.9972 86.8994 13.6056 89.439 10.1611C91.9787 6.71667 95.3744 4.16204 99.6261 2.49722C103.878 0.832407 108.662 0 113.97 0C117.622 0 121.142 0.420988 124.547 1.24383C127.943 2.07623 131.005 3.38704 133.745 5.16667C136.484 6.9463 138.662 9.23302 140.289 12.0077C141.915 14.792 142.752 18.1407 142.819 22.0444C142.819 22.5611 142.629 23.0108 142.267 23.384C141.896 23.7571 141.459 23.9389 140.936 23.9389H123.472C122.559 23.9389 121.884 23.7571 121.456 23.384C121.028 23.0108 120.647 22.3698 120.305 21.4417C119.677 19.6046 118.821 18.3704 117.737 17.7389C116.652 17.1074 115.368 16.7917 113.884 16.7917C112.001 16.7917 110.498 17.2988 109.385 18.3034C108.272 19.308 107.654 21.1355 107.54 23.7667C107.369 28.4741 107.369 33.2963 107.54 38.2333C107.654 40.8741 108.272 42.7015 109.385 43.6966C110.498 44.7012 112.001 45.2083 113.884 45.2083C115.368 45.2083 116.662 44.8639 117.775 44.175C118.887 43.4861 119.724 42.2806 120.305 40.5583C120.59 39.5824 120.961 38.9222 121.418 38.5778C121.874 38.2333 122.559 38.0611 123.472 38.0611H140.936C141.449 38.0611 141.887 38.2525 142.267 38.616C142.638 38.9892 142.819 39.4293 142.819 39.9556C142.762 43.8593 141.925 47.208 140.289 49.9923C138.662 52.7765 136.484 55.0633 133.745 56.8333C131.005 58.613 127.933 59.9238 124.547 60.7466C121.142 61.579 117.622 62 113.97 62Z" fill="#232321"/>
<path id="Vector_4" d="M193.393 58.2974L176.529 29.7085L191.938 3.70299C192.109 3.41596 192.194 3.10022 192.194 2.75577C192.194 2.23911 192.014 1.79898 191.643 1.42583C191.272 1.05269 190.825 0.861328 190.311 0.861328H171.392C170.479 0.861328 169.756 1.06225 169.214 1.46411C168.672 1.86596 168.253 2.29651 167.968 2.75577L159.407 18.2271L158.295 20.2363V3.18633C158.295 2.55485 158.066 2.00948 157.61 1.55022C157.153 1.09096 156.611 0.861328 155.983 0.861328H139.633C139.005 0.861328 138.463 1.09096 138.006 1.55022C137.949 1.61719 137.892 1.6746 137.835 1.74158C137.778 1.80855 137.73 1.87553 137.692 1.9425C137.645 2.00948 137.607 2.08602 137.568 2.15299C137.53 2.22954 137.502 2.29651 137.473 2.37306C140.422 4.41102 142.838 6.99435 144.636 10.0752C146.586 13.424 147.613 17.4329 147.679 21.9873C147.679 23.566 147.09 25.0011 146.015 26.0919C144.931 27.1731 143.504 27.7663 141.991 27.7663H137.321V34.2342H141.991C143.504 34.2342 144.931 34.8274 146.005 35.9085C147.09 37.0089 147.679 38.444 147.679 39.9558C147.613 44.5675 146.586 48.5765 144.636 51.9252C142.838 55.0061 140.422 57.5894 137.473 59.6274C137.502 59.7039 137.53 59.7805 137.568 59.8474C137.645 59.991 137.73 60.1345 137.835 60.2589C137.892 60.3258 137.949 60.3832 138.006 60.4502C138.463 60.9095 139.005 61.1391 139.633 61.1391H155.983C156.611 61.1391 157.153 60.9095 157.61 60.4502C158.066 59.991 158.295 59.4456 158.295 58.8141V40.3863L159.407 42.386L168.738 59.1586C168.853 59.3882 169.186 59.7805 169.728 60.3258C170.27 60.8712 171.107 61.1391 172.248 61.1391H191.766C192.28 61.1391 192.727 60.9573 193.098 60.5842C193.469 60.211 193.65 59.7613 193.65 59.2447C193.65 58.8428 193.564 58.5271 193.393 58.2974Z" fill="#232321"/>
<path id="Vector_5" d="M219.579 62C213.244 62 208.022 61.1389 203.913 59.4167C199.804 57.6944 196.722 55.4269 194.668 52.6139C192.613 49.8009 191.529 46.8157 191.415 43.6583C191.415 43.1417 191.595 42.7015 191.966 42.3188C192.337 41.9457 192.775 41.7639 193.288 41.7639H209.553C210.467 41.7639 211.161 41.8883 211.656 42.1466C212.141 42.4049 212.664 42.7685 213.244 43.2182C213.815 43.6201 214.395 43.9836 214.994 44.2898C215.593 44.6056 216.278 44.8352 217.049 44.9787C217.819 45.1222 218.656 45.1988 219.579 45.1988C221.519 45.1988 223.07 44.9787 224.24 44.5481C225.41 44.1176 225.999 43.534 225.999 42.7877C225.999 42.0988 225.666 41.5247 225.01 41.0654C224.354 40.6062 223.222 40.1948 221.624 39.8216C220.026 39.4485 217.8 39.0849 214.947 38.75C210.438 38.1185 206.529 37.0565 203.219 35.5639C199.909 34.0713 197.35 32.0238 195.562 29.4022C193.764 26.7901 192.87 23.5849 192.87 19.796C192.87 15.8923 193.964 12.4478 196.161 9.46265C198.358 6.47747 201.411 4.15247 205.321 2.48765C209.23 0.832407 213.786 0 218.98 0C223.26 0 227.055 0.554938 230.365 1.67438C233.675 2.79383 236.472 4.25772 238.755 6.06605C241.037 7.87438 242.778 9.81667 243.977 11.8833C245.175 13.95 245.803 15.9306 245.86 17.825C245.86 18.3417 245.67 18.7914 245.308 19.1645C244.937 19.5377 244.519 19.7194 244.062 19.7194H226.941C226.142 19.7194 225.495 19.6046 225.02 19.375C224.534 19.1454 224.03 18.8009 223.517 18.3417C223.231 18.0546 222.699 17.7293 221.928 17.3466C221.158 16.9735 220.178 16.7917 218.97 16.7917C217.543 16.7917 216.497 17.0117 215.85 17.4423C215.194 17.8728 214.861 18.466 214.861 19.2028C214.861 19.7194 215.118 20.2074 215.631 20.6667C216.145 21.1259 217.087 21.5278 218.456 21.8722C219.826 22.2167 221.795 22.5611 224.363 22.9056C230.07 23.5944 234.645 24.7043 238.108 26.216C241.561 27.7373 244.072 29.7657 245.641 32.2917C247.21 34.8176 248 37.9463 248 41.6778C248 45.8685 246.754 49.4852 244.271 52.5278C241.789 55.5704 238.403 57.9049 234.122 59.541C229.842 61.1772 225.001 62 219.579 62Z" fill="#232321"/>
</g>
</svg>
